<svg width="34" height="34" viewBox="0 0 34 34" fill="none" xmlns="http://www.w3.org/2000/svg">
<rect width="34" height="34" rx="9.06669" fill="#674EFF"/>
<mask id="mask0_986_31962" style="mask-type:alpha" maskUnits="userSpaceOnUse" x="0" y="0" width="34" height="34">
<rect width="34" height="34" rx="9.06669" fill="url(#paint0_linear_986_31962)"/>
</mask>
<g mask="url(#mask0_986_31962)">
<g filter="url(#filter0_f_986_31962)">
<ellipse cx="33.999" cy="35.3603" rx="14.28" ry="14.28" fill="#CB35FF"/>
<path d="M33.9992 20.9104C41.9796 20.9105 48.4494 27.3801 48.4494 35.3606C48.4493 43.3409 41.9795 49.8106 33.9992 49.8108C26.0188 49.8108 19.5492 43.341 19.549 35.3606C19.549 27.3801 26.0187 20.9104 33.9992 20.9104Z" stroke="black" stroke-width="0.34"/>
</g>
<g filter="url(#filter1_f_986_31962)">
<ellipse cx="3.06124" cy="1.02023" rx="14.28" ry="14.28" fill="#49F4FF"/>
<path d="M3.06152 -13.4297C11.0419 -13.4295 17.5117 -6.95991 17.5117 1.02051C17.5116 9.0008 11.0418 15.4706 3.06152 15.4707C-4.91889 15.4707 -11.3885 9.00089 -11.3887 1.02051C-11.3887 -6.96 -4.91899 -13.4297 3.06152 -13.4297Z" stroke="black" stroke-width="0.34"/>
</g>
</g>
<path d="M17.6566 12.5724C18.0883 12.1407 18.8255 12.3382 18.9835 12.928L20.8019 19.7141C20.9599 20.3039 20.4202 20.8435 19.8305 20.6855L13.0443 18.8672C12.4545 18.7092 12.257 17.972 12.6887 17.5402L17.6566 12.5724Z" fill="white"/>
<path d="M15.0681 27.5389C14.6363 27.9707 13.8991 27.7731 13.7411 27.1834L11.9228 20.3972C11.7647 19.8074 12.3044 19.2678 12.8941 19.4258L19.6803 21.2442C20.2701 21.4022 20.4676 22.1394 20.0359 22.5711L15.0681 27.5389Z" fill="white"/>
<path d="M12.2907 17.0682C11.859 17.4999 11.1218 17.3024 10.9638 16.7127L9.14541 9.9265C8.98738 9.33674 9.52705 8.79708 10.1168 8.9551L16.903 10.7734C17.4927 10.9315 17.6903 11.6687 17.2585 12.1004L12.2907 17.0682Z" fill="white"/>
<path opacity="0.16" d="M18.7428 5.37799C19.3344 5.21297 19.881 5.75401 19.722 6.34725L18.7606 9.93529C18.6472 10.3584 18.2123 10.6095 17.7892 10.4961L11.7187 8.86953C10.939 8.66062 10.9334 7.55631 11.7109 7.33944L18.7428 5.37799Z" fill="white"/>
<path opacity="0.16" d="M26.5141 24.2759C26.3521 24.8684 25.6072 25.0598 25.1797 24.6189L22.5936 21.9524C22.2886 21.6379 22.2963 21.1358 22.6108 20.8308L27.1222 16.4555C27.7017 15.8936 28.6524 16.4555 28.4395 17.2341L26.5141 24.2759Z" fill="white"/>
<path opacity="0.16" d="M6.31221 21.4627C5.87582 21.0306 6.07505 20.2878 6.66913 20.132L10.2623 19.1898C10.686 19.0787 11.1195 19.3321 11.2306 19.7558L12.8247 25.8349C13.0295 26.6157 12.073 27.1677 11.4994 26.5997L6.31221 21.4627Z" fill="white"/>
<path opacity="0.72" d="M21.6176 6.14862C21.1878 5.70992 20.4439 5.90518 20.285 6.49842L19.3235 10.0865C19.2102 10.5096 19.4613 10.9445 19.8844 11.0579L25.9549 12.6844C26.7346 12.8934 27.2916 11.9398 26.7267 11.3633L21.6176 6.14862Z" fill="white"/>
<path opacity="0.72" d="M24.38 26.3472C24.9771 26.2034 25.1913 25.4648 24.7637 25.0239L22.1776 22.3574C21.8726 22.0429 21.3705 22.0352 21.0561 22.3402L16.5446 26.7155C15.9651 27.2775 16.4976 28.2449 17.2824 28.056L24.38 26.3472Z" fill="white"/>
<path opacity="0.72" d="M5.55814 18.5886C5.38996 19.1793 5.92806 19.7288 6.52214 19.573L10.1153 18.6308C10.539 18.5197 10.7924 18.0861 10.6813 17.6624L9.08722 11.5833C8.88248 10.8025 7.77822 10.7909 7.55719 11.5673L5.55814 18.5886Z" fill="white"/>
<path d="M22.7809 19.8788C22.3492 20.3105 21.612 20.113 21.454 19.5232L19.6356 12.737C19.4776 12.1473 20.0173 11.6076 20.607 11.7656L27.3932 13.584C27.983 13.742 28.1805 14.4792 27.7488 14.9109L22.7809 19.8788Z" fill="white"/>
<defs>
<filter id="filter0_f_986_31962" x="3.05898" y="4.4203" width="61.88" height="61.88" filterUnits="userSpaceOnUse" color-interpolation-filters="sRGB">
<feFlood flood-opacity="0" result="BackgroundImageFix"/>
<feBlend mode="normal" in="SourceGraphic" in2="BackgroundImageFix" result="shape"/>
<feGaussianBlur stdDeviation="8.16" result="effect1_foregroundBlur_986_31962"/>
</filter>
<filter id="filter1_f_986_31962" x="-27.8787" y="-29.9198" width="61.88" height="61.88" filterUnits="userSpaceOnUse" color-interpolation-filters="sRGB">
<feFlood flood-opacity="0" result="BackgroundImageFix"/>
<feBlend mode="normal" in="SourceGraphic" in2="BackgroundImageFix" result="shape"/>
<feGaussianBlur stdDeviation="8.16" result="effect1_foregroundBlur_986_31962"/>
</filter>
<linearGradient id="paint0_linear_986_31962" x1="29.07" y1="32.47" x2="6.11998" y2="0.680014" gradientUnits="userSpaceOnUse">
<stop stop-color="#4425FF"/>
<stop offset="1" stop-color="#2A25FF"/>
</linearGradient>
</defs>
</svg>
